name rise35.5848peak51.9257fall54.8793.mot
datacolumns 19
datarows 26
range 6.26663800000000 6.30830600000000
endheader
time	ground_force1_vx	ground_force1_vy	ground_force1_vz	ground_force1_px	ground_force1_py	ground_force1_pz	ground_force2_vx	ground_force2_vy	ground_force2_vz	ground_force2_px	ground_force2_py	ground_force2_pz	ground_torque1_x	ground_torque1_y	ground_torque1_z	ground_torque2_x	ground_torque2_y	ground_torque2_z	
6.26663800000000	-8.34760800000000	40.06914900000000	-13.90080700000000	0.27249900000000	0.00000000000000	0.05384600000000	-56.87278300000000	795.32913900000005	-42.25062300000000	0.08650100000000	0.00000000000000	-0.09158700000000	0.00000000000000	-8.21668100000000	0.00000000000000	0.00000000000000	-15.50005300000000	0.00000000000000	
6.26830300000000	-9.11123000000000	46.76971800000000	-15.59039400000000	0.27617600000000	0.00000000000000	0.05500300000000	-57.33252100000000	792.27455499999996	-41.94364700000000	0.08583400000000	0.00000000000000	-0.09159900000000	0.00000000000000	-9.28023100000000	0.00000000000000	0.00000000000000	-15.49415200000000	0.00000000000000	
6.26997200000000	-9.70776200000000	53.50941300000000	-17.11481300000000	0.27972400000000	0.00000000000000	0.05606500000000	-57.81148300000000	789.10366599999998	-41.62392200000000	0.08517000000000	0.00000000000000	-0.09160800000000	0.00000000000000	-10.26011700000000	0.00000000000000	0.00000000000000	-15.49272800000000	0.00000000000000	
6.27163500000000	-10.11549500000000	60.19993400000000	-18.43888900000000	0.28315400000000	0.00000000000000	0.05704500000000	-58.30926200000000	785.81395599999996	-41.29089000000000	0.08451100000000	0.00000000000000	-0.09161400000000	0.00000000000000	-11.13399000000000	0.00000000000000	0.00000000000000	-15.49565200000000	0.00000000000000	
6.27333000000000	-10.32241400000000	66.77662800000000	-19.54030700000000	0.28647900000000	0.00000000000000	0.05795200000000	-58.82534200000000	782.40286100000003	-40.94398600000000	0.08385900000000	0.00000000000000	-0.09161600000000	0.00000000000000	-11.88678200000000	0.00000000000000	0.00000000000000	-15.50277400000000	0.00000000000000	
6.27497500000000	-10.32597100000000	73.20031500000000	-20.40967400000000	0.28970600000000	0.00000000000000	0.05879500000000	-59.35909500000000	778.86777700000005	-40.58264300000000	0.08321400000000	0.00000000000000	-0.09161500000000	0.00000000000000	-12.51093200000000	0.00000000000000	0.00000000000000	-15.51391900000000	0.00000000000000	
6.27664300000000	-10.13211900000000	79.45670800000001	-21.04950400000000	0.29284200000000	0.00000000000000	0.05958100000000	-59.90977900000000	775.20607299999995	-40.20629600000000	0.08257600000000	0.00000000000000	-0.09161000000000	0.00000000000000	-13.00596300000000	0.00000000000000	0.00000000000000	-15.52889100000000	0.00000000000000	
6.27830600000000	-9.75381200000000	85.55387700000000	-21.47240300000000	0.29589300000000	0.00000000000000	0.06031800000000	-60.47653600000000	771.41510000000005	-39.81438200000000	0.08194700000000	0.00000000000000	-0.09160200000000	0.00000000000000	-13.37755000000000	0.00000000000000	0.00000000000000	-15.54747000000000	0.00000000000000	
6.27997200000000	-9.20919000000000	91.51829900000000	-21.69873200000000	0.29886300000000	0.00000000000000	0.06100900000000	-61.05839500000000	767.49220600000001	-39.40635200000000	0.08132700000000	0.00000000000000	-0.09158900000000	0.00000000000000	-13.63623600000000	0.00000000000000	0.00000000000000	-15.56941400000000	0.00000000000000	
6.28163400000000	-8.51964300000000	97.39007700000001	-21.75403500000000	0.30175500000000	0.00000000000000	0.06166000000000	-61.65426600000000	763.43474300000003	-38.98166700000000	0.08071800000000	0.00000000000000	-0.09157200000000	0.00000000000000	-13.79596800000000	0.00000000000000	0.00000000000000	-15.59445600000000	0.00000000000000	
6.28331900000000	-7.70794100000000	103.21786000000000	-21.66648100000000	0.30457200000000	0.00000000000000	0.06227400000000	-62.26294600000000	759.24008400000002	-38.53980700000000	0.08011900000000	0.00000000000000	-0.09155000000000	0.00000000000000	-13.87259200000000	0.00000000000000	0.00000000000000	-15.62231200000000	0.00000000000000	
6.28496800000000	-6.79657600000000	109.05393200000000	-21.46453300000000	0.30731400000000	0.00000000000000	0.06285600000000	-62.88311500000000	754.90563099999997	-38.08027400000000	0.07953300000000	0.00000000000000	-0.09152300000000	0.00000000000000	-13.88244700000000	0.00000000000000	0.00000000000000	-15.65267100000000	0.00000000000000	
6.28663800000000	-5.80639500000000	114.94983000000001	-21.17499000000000	0.30998400000000	0.00000000000000	0.06340700000000	-63.51334200000000	750.42883200000006	-37.60259400000000	0.07895800000000	0.00000000000000	-0.09149200000000	0.00000000000000	-13.84115600000000	0.00000000000000	0.00000000000000	-15.68520600000000	0.00000000000000	
6.28831400000000	-4.75559900000000	120.95274700000000	-20.82147700000000	0.31258200000000	0.00000000000000	0.06393000000000	-64.15208100000000	745.80719099999999	-37.10632800000000	0.07839700000000	0.00000000000000	-0.09145500000000	0.00000000000000	-13.76266100000000	0.00000000000000	0.00000000000000	-15.71956700000000	0.00000000000000	
6.28997100000000	-3.65911100000000	127.10286100000000	-20.42344700000000	0.31510800000000	0.00000000000000	0.06442800000000	-64.79768000000000	741.03828199999998	-36.59107000000000	0.07784800000000	0.00000000000000	-0.09141400000000	0.00000000000000	-13.65855200000000	0.00000000000000	0.00000000000000	-15.75538500000000	0.00000000000000	
6.29163700000000	-2.52830100000000	133.43162000000001	-19.99565700000000	0.31756300000000	0.00000000000000	0.06490300000000	-65.44838000000000	736.11976700000002	-36.05645200000000	0.07731400000000	0.00000000000000	-0.09136700000000	0.00000000000000	-13.53769000000000	0.00000000000000	0.00000000000000	-15.79227400000000	0.00000000000000	
6.29331200000000	-1.37101300000000	139.96095500000001	-19.54808400000000	0.31994700000000	0.00000000000000	0.06535700000000	-66.10231700000000	731.04940699999997	-35.50215100000000	0.07679400000000	0.00000000000000	-0.09131400000000	0.00000000000000	-13.40608800000000	0.00000000000000	0.00000000000000	-15.82983000000000	0.00000000000000	
6.29496900000000	-0.19186600000000	146.70330400000000	-19.08621700000000	0.32225900000000	0.00000000000000	0.06579100000000	-66.75753300000000	725.82507599999997	-34.92789400000000	0.07628900000000	0.00000000000000	-0.09125600000000	0.00000000000000	-13.26703300000000	0.00000000000000	0.00000000000000	-15.86763200000000	0.00000000000000	
6.29663500000000	1.00728200000000	153.66229500000000	-18.61161200000000	0.32449900000000	0.00000000000000	0.06620700000000	-67.41197200000001	720.44478200000003	-34.33345500000000	0.07579800000000	0.00000000000000	-0.09119200000000	0.00000000000000	-13.12138700000000	0.00000000000000	0.00000000000000	-15.90524700000000	0.00000000000000	
6.29831600000000	2.22674000000000	160.83392300000000	-18.12263800000000	0.32666700000000	0.00000000000000	0.06660600000000	-68.06349200000000	714.90667599999995	-33.71866500000000	0.07532300000000	0.00000000000000	-0.09112200000000	0.00000000000000	-12.96801000000000	0.00000000000000	0.00000000000000	-15.94222600000000	0.00000000000000	
6.29997300000000	3.46834400000000	168.20803000000001	-17.61532400000000	0.32876000000000	0.00000000000000	0.06699000000000	-68.70986600000001	709.20907599999998	-33.08341300000000	0.07486200000000	0.00000000000000	-0.09104700000000	0.00000000000000	-12.80426400000000	0.00000000000000	0.00000000000000	-15.97810800000000	0.00000000000000	
6.30163900000000	4.73482300000000	175.76993800000000	-17.08421000000000	0.33078000000000	0.00000000000000	0.06735800000000	-69.34879100000001	703.35047599999996	-32.42765000000000	0.07441700000000	0.00000000000000	-0.09096500000000	0.00000000000000	-12.62653000000000	0.00000000000000	0.00000000000000	-16.01242400000000	0.00000000000000	
6.30330600000000	6.02921700000000	183.50206299999999	-16.52315100000000	0.33272500000000	0.00000000000000	0.06771300000000	-69.97789500000000	697.32956899999999	-31.75138800000000	0.07398700000000	0.00000000000000	-0.09087700000000	0.00000000000000	-12.43070900000000	0.00000000000000	0.00000000000000	-16.04469400000000	0.00000000000000	
6.30497200000000	7.35438500000000	191.38542300000000	-15.92602700000000	0.33459500000000	0.00000000000000	0.06805500000000	-70.59474100000000	691.14525700000002	-31.05470800000000	0.07357100000000	0.00000000000000	-0.09078300000000	0.00000000000000	-12.21267200000000	0.00000000000000	0.00000000000000	-16.07443100000000	0.00000000000000	
6.30663400000000	8.71261500000000	199.40092200000001	-15.28730600000000	0.33638800000000	0.00000000000000	0.06838500000000	-71.19683600000000	684.79667300000006	-30.33775700000000	0.07317100000000	0.00000000000000	-0.09068300000000	0.00000000000000	-11.96862200000000	0.00000000000000	0.00000000000000	-16.10114400000000	0.00000000000000	
6.30830600000000	10.10534700000000	207.53038100000001	-14.60246800000000	0.33810400000000	0.00000000000000	0.06870400000000	-71.78164099999999	678.28318999999999	-29.60075200000000	0.07278400000000	0.00000000000000	-0.09057600000000	0.00000000000000	-11.69537900000000	0.00000000000000	0.00000000000000	-16.12433700000000	0.00000000000000	
